<svg id="wave" style="transform:rotate(0deg); transition: 0.3s" viewBox="0 0 1440 160" version="1.1" xmlns="http://www.w3.org/2000/svg"><defs><linearGradient id="sw-gradient-0" x1="0" x2="0" y1="1" y2="0"><stop stop-color="rgba(255, 255, 255, 1)" offset="0%"></stop><stop stop-color="rgba(255, 255, 255, 1)" offset="100%"></stop></linearGradient></defs><path style="transform:translate(0, 0px); opacity:1" fill="url(#sw-gradient-0)" d="M0,112L26.7,114.7C53.3,117,107,123,160,106.7C213.3,91,267,53,320,42.7C373.3,32,427,48,480,50.7C533.3,53,587,43,640,37.3C693.3,32,747,32,800,48C853.3,64,907,96,960,101.3C1013.3,107,1067,85,1120,74.7C1173.3,64,1227,64,1280,56C1333.3,48,1387,32,1440,29.3C1493.3,27,1547,37,1600,58.7C1653.3,80,1707,112,1760,125.3C1813.3,139,1867,133,1920,109.3C1973.3,85,2027,43,2080,29.3C2133.3,16,2187,32,2240,42.7C2293.3,53,2347,59,2400,56C2453.3,53,2507,43,2560,45.3C2613.3,48,2667,64,2720,66.7C2773.3,69,2827,59,2880,48C2933.3,37,2987,27,3040,24C3093.3,21,3147,27,3200,45.3C3253.3,64,3307,96,3360,101.3C3413.3,107,3467,85,3520,66.7C3573.3,48,3627,32,3680,34.7C3733.3,37,3787,59,3813,69.3L3840,80L3840,160L3813.3,160C3786.7,160,3733,160,3680,160C3626.7,160,3573,160,3520,160C3466.7,160,3413,160,3360,160C3306.7,160,3253,160,3200,160C3146.7,160,3093,160,3040,160C2986.7,160,2933,160,2880,160C2826.7,160,2773,160,2720,160C2666.7,160,2613,160,2560,160C2506.7,160,2453,160,2400,160C2346.7,160,2293,160,2240,160C2186.7,160,2133,160,2080,160C2026.7,160,1973,160,1920,160C1866.7,160,1813,160,1760,160C1706.7,160,1653,160,1600,160C1546.7,160,1493,160,1440,160C1386.7,160,1333,160,1280,160C1226.7,160,1173,160,1120,160C1066.7,160,1013,160,960,160C906.7,160,853,160,800,160C746.7,160,693,160,640,160C586.7,160,533,160,480,160C426.7,160,373,160,320,160C266.7,160,213,160,160,160C106.7,160,53,160,27,160L0,160Z"></path></svg>