<svg id="wave" style="transform:rotate(180deg); transition: 0.3s ; margin-top: -1px; margin-left: -.6px" viewBox="0 0 1440 200" version="1.1" xmlns="http://www.w3.org/2000/svg"><defs><linearGradient id="sw-gradient-0" x1="0" x2="0" y1="1" y2="0"><stop stop-color="rgba(39, 48, 54, 1)" offset="0%"></stop><stop stop-color="rgba(39, 48, 54, 1)" offset="100%"></stop></linearGradient></defs><path style="transform:translate(0, 0px); opacity:1" fill="url(#sw-gradient-0)" d="M0,140L120,120C240,100,480,60,720,66.7C960,73,1200,127,1440,126.7C1680,127,1920,73,2160,60C2400,47,2640,73,2880,73.3C3120,73,3360,47,3600,33.3C3840,20,4080,20,4320,30C4560,40,4800,60,5040,83.3C5280,107,5520,133,5760,140C6000,147,6240,133,6480,113.3C6720,93,6960,67,7200,56.7C7440,47,7680,53,7920,60C8160,67,8400,73,8640,80C8880,87,9120,93,9360,80C9600,67,9840,33,10080,26.7C10320,20,10560,40,10800,43.3C11040,47,11280,33,11520,50C11760,67,12000,113,12240,116.7C12480,120,12720,80,12960,60C13200,40,13440,40,13680,60C13920,80,14160,120,14400,133.3C14640,147,14880,133,15120,130C15360,127,15600,133,15840,123.3C16080,113,16320,87,16560,63.3C16800,40,17040,20,17160,10L17280,0L17280,200L17160,200C17040,200,16800,200,16560,200C16320,200,16080,200,15840,200C15600,200,15360,200,15120,200C14880,200,14640,200,14400,200C14160,200,13920,200,13680,200C13440,200,13200,200,12960,200C12720,200,12480,200,12240,200C12000,200,11760,200,11520,200C11280,200,11040,200,10800,200C10560,200,10320,200,10080,200C9840,200,9600,200,9360,200C9120,200,8880,200,8640,200C8400,200,8160,200,7920,200C7680,200,7440,200,7200,200C6960,200,6720,200,6480,200C6240,200,6000,200,5760,200C5520,200,5280,200,5040,200C4800,200,4560,200,4320,200C4080,200,3840,200,3600,200C3360,200,3120,200,2880,200C2640,200,2400,200,2160,200C1920,200,1680,200,1440,200C1200,200,960,200,720,200C480,200,240,200,120,200L0,200Z"></path></svg>